# xmcd
#
# Track frame offsets:
#	150
#	17091
#	34763
#	46277
#	60329
#	79948
#	94188
#	109645
#	122678
#	137566
#
# Disc length: 2083 seconds
#
# Revision: 0
# Processed by: cddbd v1.5.1PL0 Copyright (c) Steve Scherf et al.
# Submitted via: audiograbber 1.83.01
#
DISCID=7808210a
DTITLE=Brooks, Garth - No Fences - Brooks, Garth - No Fences
DYEAR=1990
DGENRE=Country
TTITLE0=The Thunder Rolls
TTITLE1=New Way To Fly
TTITLE2=Two Of A Kind, Workin' On A Full House
TTITLE3=Victim Of The Game
TTITLE4=Friends In Low Places
TTITLE5=Wild Horses
TTITLE6=Unanswered Prayers
TTITLE7=Same Old Story
TTITLE8=Mr. Blue
TTITLE9=Wolves
EXTD=
EXTT0=
EXTT1=
EXTT2=
EXTT3=
EXTT4=
EXTT5=
EXTT6=
EXTT7=
EXTT8=
EXTT9=
PLAYORDER=
